<svg id="Layer_1" fill="#222" data-name="Layer 1" xmlns="http://www.w3.org/2000/svg" viewBox="0 0 24.02689 24"><defs><style>.cls-1{fill:#fff;}</style></defs><title>About us</title><path d="M12.0499,23.96989c-3.04889,0-6.09812-.02734-9.14654.01075a3.02075,3.02075,0,0,1-2.9033-2.95958c.04326-6.05068.01827-12.10184.019-18.15283A2.83382,2.83382,0,0,1,2.8066.01231Q12.0238-.01137,21.24108.00967a2.78991,2.78991,0,0,1,2.7781,2.81028q.01561,9.17015-.0003,18.34035a2.80328,2.80328,0,0,1-2.77517,2.80818c-.42415.01114-.84833.02936-1.27251.0298q-3.96064.00414-7.92129.00139ZM19.98362,19.925c0-.21291.0006-.36876-.00009-.52461-.01028-2.32624.02371-4.65409-.06065-6.97764a4.24345,4.24345,0,0,0-.63937-1.84185c-1.08189-1.88554-4.38948-2.12066-5.95715-.323-.0994.114-.20484.22269-.38949.42268V9.37579h-3.122V19.91707h3.11967c0-.33137-.00271-.62791.00044-.92438.01855-1.74451.02127-3.48944.0644-5.23336A1.862,1.862,0,0,1,14.99518,11.988,1.77473,1.77473,0,0,1,16.695,13.82522c.00514.86445.01427,1.72889.01642,2.59335.00287,1.15966.00071,2.31934.00071,3.50642ZM7.60836,9.37388H4.39957V19.91033h3.2088ZM4.107,5.96381A1.88146,1.88146,0,0,0,6.01373,7.91175,1.91157,1.91157,0,0,0,7.90689,5.97682,1.87668,1.87668,0,0,0,5.92968,4.0513,1.83567,1.83567,0,0,0,4.107,5.96381Z"/><path class="cls-1" d="M19.98362,19.925H16.71216c0-1.18708.00216-2.34675-.00071-3.50642-.00214-.86446-.01127-1.72889-.01642-2.59335A1.77473,1.77473,0,0,0,14.99518,11.988a1.862,1.862,0,0,0-1.99582,1.77137c-.04313,1.74392-.04585,3.48885-.0644,5.23336-.00315.29648-.00044.593-.00044.92438H9.81485V9.37579h3.122v1.30476c.18465-.2.29009-.3087.38949-.42268,1.56767-1.79764,4.87525-1.56252,5.95715.323a4.24345,4.24345,0,0,1,.63937,1.84185c.08436,2.32355.05038,4.6514.06065,6.97764C19.98422,19.55622,19.98362,19.71208,19.98362,19.925Z"/><path class="cls-1" d="M7.60836,9.37388V19.91033H4.39957V9.37388Z"/><path class="cls-1" d="M4.107,5.96381A1.83567,1.83567,0,0,1,5.92968,4.0513,1.87668,1.87668,0,0,1,7.90689,5.97682,1.91157,1.91157,0,0,1,6.01373,7.91175,1.88146,1.88146,0,0,1,4.107,5.96381Z"/></svg>
